<svg width="218" height="30" viewBox="0 0 218 30" fill="none" xmlns="http://www.w3.org/2000/svg">
<path d="M6.231 23L0.651 0.369999H5.89L10.261 19.59L9.176 18.877H11.997L10.788 19.59L14.167 1.207H18.383L13.95 23H6.231ZM19.716 23L14.942 1.207H19.375L23.281 19.59L22.103 18.877H24.8L23.777 19.59L27.59 0.369999H32.55L27.59 23H19.716ZM42.1266 23.589C40.6799 23.589 39.3986 23.341 38.2826 22.845C37.1872 22.349 36.2676 21.6877 35.5236 20.861C34.8002 20.0137 34.2422 19.0733 33.8496 18.04C33.4776 16.986 33.2916 15.9113 33.2916 14.816V14.196C33.2916 13.0593 33.4776 11.9743 33.8496 10.941C34.2422 9.887 34.8002 8.94667 35.5236 8.12C36.2469 7.29333 37.1459 6.64233 38.2206 6.167C39.3159 5.671 40.5559 5.423 41.9406 5.423C43.7592 5.423 45.2886 5.83633 46.5286 6.663C47.7892 7.469 48.7502 8.53333 49.4116 9.856C50.0729 11.158 50.4036 12.584 50.4036 14.134V15.808H35.3686V12.987H47.3966L45.7846 14.289C45.7846 13.2763 45.6399 12.4083 45.3506 11.685C45.0612 10.9617 44.6272 10.414 44.0486 10.042C43.4906 9.64933 42.7879 9.453 41.9406 9.453C41.0726 9.453 40.3389 9.64933 39.7396 10.042C39.1402 10.4347 38.6856 11.0133 38.3756 11.778C38.0656 12.522 37.9106 13.4417 37.9106 14.537C37.9106 15.5497 38.0552 16.4383 38.3446 17.203C38.6339 17.947 39.0886 18.5257 39.7086 18.939C40.3286 19.3523 41.1346 19.559 42.1266 19.559C43.0359 19.559 43.7799 19.3833 44.3586 19.032C44.9372 18.6807 45.3299 18.2467 45.5366 17.73H50.0936C49.8456 18.8667 49.3599 19.8793 48.6366 20.768C47.9132 21.6567 47.0039 22.349 45.9086 22.845C44.8132 23.341 43.5526 23.589 42.1266 23.589ZM63.8273 23.558C62.4426 23.558 61.2233 23.2687 60.1693 22.69C59.1153 22.0907 58.2886 21.233 57.6893 20.117C57.09 19.001 56.7696 17.637 56.7283 16.025H57.3173V23H53.3803V0.369999H58.3403V11.871L57.1623 13.359C57.2243 11.6437 57.5446 10.2073 58.1233 9.05C58.7226 7.872 59.539 6.99367 60.5723 6.415C61.6056 5.81567 62.7836 5.516 64.1063 5.516C65.2636 5.516 66.3073 5.733 67.2373 6.167C68.188 6.58033 68.994 7.17967 69.6553 7.965C70.3166 8.72967 70.823 9.639 71.1743 10.693C71.5463 11.747 71.7323 12.894 71.7323 14.134V14.816C71.7323 16.056 71.5463 17.203 71.1743 18.257C70.823 19.311 70.296 20.241 69.5933 21.047C68.9113 21.8323 68.0846 22.4523 67.1133 22.907C66.142 23.341 65.0466 23.558 63.8273 23.558ZM62.5253 19.404C63.3726 19.404 64.1063 19.1973 64.7263 18.784C65.367 18.3707 65.863 17.792 66.2143 17.048C66.5656 16.2833 66.7413 15.4257 66.7413 14.475C66.7413 13.5037 66.5656 12.6563 66.2143 11.933C65.863 11.2097 65.367 10.6517 64.7263 10.259C64.1063 9.84567 63.3726 9.639 62.5253 9.639C61.7813 9.639 61.0786 9.81467 60.4173 10.166C59.756 10.5173 59.2186 11.0237 58.8053 11.685C58.4126 12.3257 58.2163 13.111 58.2163 14.041V15.188C58.2163 16.0767 58.423 16.8413 58.8363 17.482C59.2703 18.102 59.818 18.5773 60.4793 18.908C61.1406 19.2387 61.8226 19.404 62.5253 19.404Z" fill="#F5F5F5"/>
<path d="M79.826 23L88.165 0.369999H92.381L100.999 23H98.581L90.552 1.858L91.823 2.509H88.568L89.901 1.858L82.182 23H79.826ZM84.29 15.808L85.065 13.669H95.574L96.38 15.808H84.29ZM104.723 23V0.369999H107.048V23H104.723ZM102.336 2.261V0.369999H107.048V2.261H102.336ZM119.678 23.527C118.293 23.527 117.084 23.2893 116.051 22.814C115.038 22.318 114.191 21.6567 113.509 20.83C112.827 19.9827 112.31 19.0527 111.959 18.04C111.628 17.0273 111.463 16.0043 111.463 14.971V14.537C111.463 13.483 111.628 12.46 111.959 11.468C112.31 10.4553 112.827 9.546 113.509 8.74C114.191 7.91333 115.038 7.26233 116.051 6.787C117.084 6.291 118.273 6.043 119.616 6.043C120.98 6.043 122.189 6.291 123.243 6.787C124.318 7.283 125.186 7.98567 125.847 8.895C126.508 9.80433 126.901 10.879 127.025 12.119H124.793C124.607 10.9823 124.07 10.042 123.181 9.298C122.313 8.53333 121.125 8.151 119.616 8.151C118.314 8.151 117.229 8.45067 116.361 9.05C115.514 9.62867 114.873 10.4243 114.439 11.437C114.005 12.429 113.788 13.5347 113.788 14.754C113.788 15.9527 114.005 17.0687 114.439 18.102C114.873 19.1147 115.524 19.931 116.392 20.551C117.26 21.1503 118.355 21.45 119.678 21.45C120.691 21.45 121.569 21.2743 122.313 20.923C123.078 20.551 123.687 20.055 124.142 19.435C124.617 18.815 124.896 18.133 124.979 17.389H127.211C127.128 18.629 126.736 19.714 126.033 20.644C125.351 21.5533 124.462 22.2663 123.367 22.783C122.272 23.279 121.042 23.527 119.678 23.527ZM131.164 23V0.369999H133.489V13.173L132.807 13.7C132.807 12.1707 133.024 10.8377 133.458 9.701C133.913 8.56433 134.584 7.686 135.473 7.066C136.382 6.42533 137.519 6.105 138.883 6.105H139.007C140.991 6.105 142.489 6.756 143.502 8.058C144.535 9.36 145.052 11.1683 145.052 13.483V23H142.758V12.987C142.758 11.5197 142.355 10.3623 141.549 9.515C140.743 8.66767 139.658 8.244 138.294 8.244C136.827 8.244 135.659 8.71933 134.791 9.67C133.923 10.6 133.489 11.8297 133.489 13.359V23H131.164ZM157.383 23.527C155.978 23.527 154.758 23.2893 153.725 22.814C152.692 22.318 151.844 21.667 151.183 20.861C150.522 20.0343 150.026 19.1147 149.695 18.102C149.385 17.0893 149.23 16.0457 149.23 14.971V14.537C149.23 13.483 149.385 12.4497 149.695 11.437C150.026 10.4243 150.522 9.515 151.183 8.709C151.844 7.903 152.671 7.26233 153.663 6.787C154.676 6.291 155.854 6.043 157.197 6.043C158.912 6.043 160.338 6.42533 161.475 7.19C162.632 7.95467 163.5 8.93633 164.079 10.135C164.658 11.313 164.947 12.584 164.947 13.948V15.157H150.284V13.359H163.335L162.746 14.258C162.746 13.0387 162.529 11.9743 162.095 11.065C161.682 10.135 161.062 9.41167 160.235 8.895C159.429 8.35767 158.416 8.089 157.197 8.089C155.916 8.089 154.851 8.38867 154.004 8.988C153.157 9.58733 152.516 10.383 152.082 11.375C151.669 12.367 151.462 13.4933 151.462 14.754C151.462 15.994 151.669 17.1307 152.082 18.164C152.516 19.1767 153.167 19.9827 154.035 20.582C154.924 21.1813 156.04 21.481 157.383 21.481C158.809 21.481 159.966 21.1607 160.855 20.52C161.744 19.8587 162.291 19.0837 162.498 18.195H164.668C164.461 19.2903 164.027 20.241 163.366 21.047C162.705 21.8323 161.868 22.442 160.855 22.876C159.842 23.31 158.685 23.527 157.383 23.527ZM169.113 23V6.57H170.973V13.483H170.601C170.601 11.9743 170.807 10.6723 171.221 9.577C171.655 8.48167 172.295 7.63433 173.143 7.035C173.99 6.415 175.065 6.105 176.367 6.105H176.46C177.762 6.105 178.836 6.40467 179.684 7.004C180.531 7.60333 181.161 8.45067 181.575 9.546C181.988 10.6413 182.195 11.9537 182.195 13.483H181.451C181.451 11.9743 181.657 10.6723 182.071 9.577C182.505 8.48167 183.145 7.63433 183.993 7.035C184.861 6.415 185.946 6.105 187.248 6.105H187.341C188.643 6.105 189.717 6.40467 190.565 7.004C191.433 7.60333 192.073 8.45067 192.487 9.546C192.921 10.6413 193.138 11.9537 193.138 13.483V23H190.813V12.956C190.813 11.5093 190.461 10.3623 189.759 9.515C189.056 8.66767 188.043 8.244 186.721 8.244C185.357 8.244 184.272 8.68833 183.466 9.577C182.68 10.445 182.288 11.623 182.288 13.111V23H179.963V12.956C179.963 11.5093 179.611 10.3623 178.909 9.515C178.206 8.66767 177.193 8.244 175.871 8.244C174.507 8.244 173.422 8.68833 172.616 9.577C171.83 10.445 171.438 11.623 171.438 13.111V23H169.113ZM197.044 29.386V27.309H199.152C199.875 27.309 200.495 27.216 201.012 27.03C201.528 26.8647 201.962 26.565 202.314 26.131C202.665 25.697 202.965 25.0977 203.213 24.333L208.731 6.601H210.994L205.228 24.984C204.897 26.038 204.442 26.8853 203.864 27.526C203.285 28.1873 202.593 28.6627 201.787 28.952C200.981 29.2413 200.061 29.386 199.028 29.386H197.044ZM202.376 22.597V20.644H205.321V22.597H202.376ZM202.097 22.597L196.145 6.601H198.532L204.267 22.597H202.097Z" fill="#F5F5F5" fill-opacity="0.9"/>
<path d="M214.285 23V19.931H217.199V23H214.285Z" fill="#FA0404" fill-opacity="0.9"/>
</svg>
